<?xml version="1.0" encoding="UTF-8" standalone="no"?>
<svg width="1136" height="610" viewBox="0 0 1224 656" version="1.1"
  xmlns="http://www.w3.org/2000/svg"
  xmlns:svg="http://www.w3.org/2000/svg">
  <style type="text/css">
    <![CDATA[
      * { 
        fill-opacity: 1;
        font-family: Ubuntu Mono,"Ubuntu Mono";
        font-size:  32px;
        fill: #646669;
      }
      .background {
        fill: #2c2e31;
        rx:10;
        ry:10;
      }
      .main {
        fill: #e2b714;
      }
      .primary {
        fill: #d1d0c5;
        font-size: 1.25em;
      }
      #profile #name {
        font-size: 2em;
        font-weight: bold;
      }
      #leaderboard text, #personalBests text {
        text-anchor: middle;
      }
      #typingStats text {
        text-anchor: end;
      }    
    ]]>
  </style>

  <g>

    <g id="profile">
      <mask id="pfp">
        <rect width="100%" height="100%" style="fill:white"/>
        <circle style="fill:black" cx="97" cy="97" r="64" />        
      </mask>
      <rect class="background" x="0" y="0" width="1224" height="194" mask="url(#pfp)"/>
      
      <g transform="translate(195,75)">
      <text id="name" class="primary" x="0" y="0">{{name}}</text>
      <text x="0" y="55">{{joined}}</text>
      <text x="0" y="93">Typed for {{typingStats.timeTyping}}</text>
      </g>

      <g id="typingStats" transform="translate(1116,50)">
        <g>
          <text x="75" y="0">tests started</text>
          <text class="primary" x="75" y="40">{{typingStats.started}}</text>
        </g>
        <g transform="translate(0,78)">
          <text x="75" y="0">tests completed</text>
          <text class="primary" x="75" y="40">{{typingStats.completed}}</text>
        </g>      
      </g>
    </g>

    <g id="leaderboard" transform="translate(0,227)">
      <rect class="background" x="0" y="0" width="1224" height="132" />
      <text x="600" y="50">All-Time English Leaderboard</text>

      <g transform="translate(0,105)">
        <g transform="translate(0,0)">
          <text x="150" y="0">15 seconds</text>
        </g>
        <g transform="translate(306,0)">
          <text class="primary" x="150" y="0">{{lb.15.rank}}</text>
        </g>
        <g transform="translate(612,0)">
          <text x="150" y="0">60 seconds</text>
        </g>
        <g transform="translate(918,0)">
          <text class="primary" x="150" y="0">{{lb.60.rank}}</text>
        </g>
      </g>
    </g>

    <g id="personalBests" transform="translate(0,392)">
      <rect class="background" x="0" y="0" width="1224" height="162" />
      <g transform="translate(0,51)">
        <g transform="translate(0,0)">
          <text x="150" y="0">15 seconds</text>
          <text class="primary wpm" x="150" y="45">{{pb.time.15.wpm}} wpm</text>
          <text x="150" y="86">{{pb.time.15.acc}} acc</text>
        </g>
        <g transform="translate(306,0)">
          <text x="150" y="0">30 seconds</text>
          <text class="primary wpm" x="150" y="45">{{pb.time.30.wpm}} wpm</text>
          <text x="150" y="86">{{pb.time.30.acc}} acc</text>
        </g>
        <g transform="translate(612,0)">
          <text x="150" y="0">60 seconds</text>
          <text class="primary wpm" x="150" y="45">{{pb.time.60.wpm}} wpm</text>
          <text x="150" y="86">{{pb.time.60.acc}} acc</text>
        </g>
        <g transform="translate(918,0)">
          <text x="150" y="0">120 seconds</text>
          <text class="primary wpm" x="150" y="45">{{pb.time.120.wpm}} wpm</text>
          <text x="150" y="86">{{pb.time.120.acc}} acc</text>
        </g>
      </g>
    </g>

    <g id="logo" transform="translate(891,579)">
      <g transform="scale(0.18)">
        <path class="primary" d="M-434.552 221.718a3.768 3.768 0 0 1 1.191 0c.327.063.06.115-.595.115s-.923-.052-.596-.115zm165.1 0a3.768 3.768 0 0 1 1.191 0c.327.063.06.115-.595.115s-.923-.052-.596-.115zm-167.2-.259c.191-.076.42-.067.507.021.088.088-.068.15-.347.14-.308-.013-.37-.076-.16-.16zm170.127 0c.191-.076.42-.067.508.021.087.088-.069.15-.348.14-.308-.013-.37-.076-.16-.16zm-171.995-.259c.182-.073.48-.073.661 0 .182.074.033.134-.33.134-.364 0-.513-.06-.331-.134zm173.566 0c.182-.073.48-.073.662 0 .182.074.033.134-.33.134-.365 0-.514-.06-.332-.134zm566.01-2.621c0-.083 2.873-6.721 6.384-14.75 3.512-8.03 6.437-14.787 6.5-15.015.065-.228-7.987-18.722-17.893-41.097-9.905-22.376-18.01-40.733-18.01-40.794 0-.062 3.976-.112 8.836-.112 6.82 0 8.866.075 8.97.33.074.183 5.74 13.527 12.59 29.655 6.849 16.128 12.657 29.969 12.905 30.758.249.789.524 1.434.611 1.434.087 0 .53-1.101.983-2.447.665-1.974 16.97-47.14 20.631-57.15l.944-2.58h8.966c4.932 0 8.967.068 8.967.151 0 .084-7.302 17.913-16.226 39.622-8.925 21.708-19.067 46.822-22.538 55.808l-6.312 16.338h-8.154c-4.485 0-8.154-.068-8.154-.151zm142.949-.18c.071-.182 3.013-6.935 6.537-15.008 5.796-13.278 6.382-14.753 6.15-15.478-.141-.44-8.2-18.72-17.909-40.62-9.709-21.902-17.715-39.971-17.79-40.155-.112-.266 1.675-.32 8.78-.264l8.918.07 12.354 29.103c6.794 16.008 12.635 29.878 12.98 30.824.344.946.697 1.803.783 1.904.087.102 5.208-13.799 11.38-30.89l11.222-31.074h8.983c8.428 0 8.975.029 8.856.463-.07.255-7.184 17.608-15.809 38.563-12.596 30.603-22.659 55.747-28.617 71.504l-.526 1.389h-8.211c-6.462 0-8.184-.07-8.081-.331zm72.951-56.286V106.81h15.346l.012 5.622.013 5.623.71-.926c1.117-1.456 3.88-3.959 6.235-5.65 12.586-9.03 30.535-7.565 42.24 3.447 7.929 7.458 12.173 18.213 12.173 30.843 0 11.81-3.84 22.05-11.127 29.673-5.342 5.588-12.458 9.236-19.961 10.232-2.9.385-9.016.173-11.642-.404-6.025-1.323-11.78-4.387-16.53-8.8l-2.12-1.97-.068 21.387-.067 21.386-7.607.07-7.607.07zm44.715 8.994c6.778-1.942 12.252-6.964 15.169-13.915 3.043-7.252 2.838-17.089-.503-24.093-3-6.289-7.988-10.665-14.331-12.574-2.279-.686-8.42-.962-11.085-.498-8.27 1.44-15.437 7.967-18.027 16.417-.907 2.957-1.245 5.551-1.225 9.393.028 5.535.745 8.673 3.026 13.235 3.006 6.013 8.385 10.48 14.468 12.016 3.083.778 3.11.78 6.952.68 2.64-.069 4.089-.241 5.556-.661zm-1015.505 43.456c-.329-.42-.32-.43.1-.1.44.345.581.563.363.563-.055 0-.263-.209-.463-.464zm204.292.363c0-.055.209-.264.463-.463.42-.33.43-.32.1.1-.345.44-.563.58-.563.363zm3.44-2.62c0-.04.923-.962 2.05-2.05l2.051-1.977-1.978 2.05c-1.837 1.905-2.123 2.171-2.123 1.978zm-212.99-2.175c-1.084-1.092-1.911-1.985-1.839-1.985.073 0 1.02.893 2.104 1.985 1.084 1.091 1.912 1.984 1.839 1.984-.073 0-1.02-.893-2.104-1.984zm26.128-4.288a3.768 3.768 0 0 1 1.19 0c.328.063.06.115-.595.115s-.922-.052-.595-.115zm161.925 0a3.768 3.768 0 0 1 1.19 0c.328.063.06.115-.595.115s-.922-.052-.595-.115zm-164.025-.259c.19-.076.419-.067.507.021.088.088-.068.15-.347.14-.309-.013-.371-.076-.16-.16zm166.952 0c.19-.076.42-.067.507.021.088.088-.068.15-.347.14-.308-.013-.371-.076-.16-.16zm-195.247-.546c-.329-.42-.32-.43.1-.1.255.2.463.408.463.463 0 .217-.217.077-.563-.363zm223.342.363c0-.055.209-.264.463-.463.42-.33.43-.32.1.1-.345.44-.563.58-.563.363zm-225.832-4.151c-.096-.156-.118-.34-.049-.409.07-.069.197.058.283.283.179.466.026.548-.234.126zm228.627-.06c.1-.261.248-.408.33-.327.08.082 0 .295-.181.475-.262.26-.292.229-.149-.148zm-208.41-.386c-.329-.42-.32-.429.1-.1.255.2.463.408.463.463 0 .218-.217.078-.563-.363zm187.888.363c0-.055.209-.263.463-.463.42-.329.43-.32.1.1-.345.44-.563.581-.563.363zm-189.706-1.884c-.643-.655-1.109-1.19-1.036-1.19.073 0 .658.535 1.3 1.19.643.655 1.11 1.19 1.037 1.19-.073 0-.658-.535-1.301-1.19zm192.341-.463c.649-.691 1.214-1.257 1.257-1.257.198 0-.012.238-1.18 1.334l-1.257 1.18zm-194.491-1.985c-.33-.42-.32-.429.1-.1.254.2.463.409.463.464 0 .217-.218.077-.563-.364zm195.825.364c0-.055.208-.264.463-.463.42-.33.429-.32.1.1-.346.44-.563.58-.563.363zm-216.123-7.573c0-.364.06-.513.134-.331.073.182.073.48 0 .661-.074.182-.134.033-.134-.33zm37.215.348c.191-.076.42-.067.507.02.088.089-.068.151-.347.14-.308-.013-.371-.076-.16-.16zm19.315 0c.19-.076.419-.067.507.02.088.089-.069.151-.348.14-.308-.013-.37-.076-.16-.16zm28.31 0c.191-.076.42-.067.507.02.088.089-.068.151-.347.14-.308-.013-.371-.076-.16-.16zm51.065 0c.19-.076.419-.067.507.02.088.089-.069.151-.348.14-.308-.013-.37-.076-.16-.16zm28.31 0c.191-.076.42-.067.507.02.088.089-.068.151-.347.14-.308-.013-.371-.076-.16-.16zm3.44 0c.19-.076.419-.067.507.02.088.089-.069.151-.348.14-.308-.013-.37-.076-.16-.16zm28.31 0c.191-.076.42-.067.507.02.088.089-.068.151-.347.14-.308-.013-.371-.076-.16-.16zm3.44 0c.19-.076.419-.067.507.02.088.089-.069.151-.348.14-.308-.013-.37-.076-.16-.16zm37.397-.348c0-.364.06-.513.134-.331.073.182.073.48 0 .661-.074.182-.134.033-.134-.33zm-237.087-1.742c.012-.309.075-.371.16-.16.076.19.067.419-.021.507-.088.088-.15-.068-.14-.347zm237.331 0c.013-.309.075-.371.16-.16.076.19.067.419-.021.507-.088.088-.15-.068-.139-.347zm-221.435-1.698c0-.364.06-.513.133-.33.073.181.073.479 0 .66-.073.183-.133.034-.133-.33zm205.58 0c0-.364.061-.513.134-.33.074.181.074.479 0 .66-.073.183-.133.034-.133-.33zm-221.69-.794c0-.655.052-.923.115-.595.063.327.063.863 0 1.19-.063.328-.115.06-.115-.595zm237.86 0c0-.655.052-.923.115-.595.063.327.063.863 0 1.19-.063.328-.114.06-.114-.595zm206.304.626c-4.86-.464-10.547-2.052-14.544-4.061-7.525-3.784-14.075-10.503-17.563-18.016-4.628-9.97-5.167-22.415-1.43-33.053 3.853-10.972 13.315-20.129 24.414-23.626 12.01-3.784 24.958-2.086 35.038 4.595 8.212 5.443 14.186 14.23 16.267 23.926 1.296 6.034 1.3 13.876.01 19.764A38.974 38.974 0 0 1 5.647 174.6c-5.841 5.921-12.9 9.572-21.157 10.942-2.45.406-8.598.68-10.723.477zm7.12-14.132c8.853-1.11 16.617-7.956 19.339-17.053 1.935-6.466 1.516-15.405-.993-21.167-1.108-2.545-3.439-5.952-5.312-7.763-4.396-4.253-9.139-6.31-15.193-6.587-7.482-.343-13.572 2.062-18.527 7.314-3.448 3.655-5.459 7.761-6.425 13.122-.499 2.766-.492 8.898.013 11.766 1.646 9.351 7.576 16.538 16.017 19.413 3.388 1.153 7.01 1.465 11.08.955zm252.965 14.017c-7.239-.798-13.356-2.854-18.653-6.27-8.85-5.707-14.568-14.37-16.718-25.33-.663-3.383-.648-12.671.027-16.404 1.639-9.052 5.293-15.942 11.753-22.158 5.084-4.893 11.622-8.239 19.066-9.757 3.725-.76 9.975-.938 13.64-.388 3.287.493 7.384 1.781 10.242 3.22 6.606 3.327 12.573 9.506 15.821 16.381 2.715 5.746 3.71 10.976 3.714 19.516l.002 4.696h-59.532v.627c0 1.131 1.243 5.558 2.077 7.397 3.036 6.696 9.096 11.77 16.312 13.657 6.736 1.762 15.716 1.244 20.529-1.185 1.864-.94 6.248-3.83 8.101-5.34 1.216-.989 1.516-1.128 1.8-.83.188.197 1.908 2.66 3.824 5.475l3.482 5.117-1.009.898c-2.817 2.506-8.505 5.876-12.915 7.653-2.79 1.124-7.167 2.35-9.79 2.74-2.755.411-9.212.567-11.773.285zm23.21-50.45c-.62-7.354-7.322-14.161-15.593-15.837-2.57-.52-7.672-.398-10.66.257-7.497 1.642-12.664 5.533-15.252 11.484-.53 1.218-1.813 5.227-1.813 5.663 0 .12 9.78.218 21.734.218h21.734zm385.704 50.57c-8.029-.834-14.304-2.843-19.712-6.311-11.756-7.54-17.964-20.109-17.383-35.198.455-11.81 3.954-20.272 11.556-27.95 7.109-7.18 15.75-10.854 26.465-11.25 4.973-.185 8.59.28 12.596 1.62 5.503 1.842 9.244 4.188 13.47 8.448 3.178 3.202 5.093 5.868 6.863 9.553 2.84 5.915 3.848 11.056 3.848 19.638v4.836h-29.766c-26.643 0-29.765.043-29.765.408 0 1.166.954 4.772 1.823 6.89 2.916 7.102 9.031 12.412 16.565 14.383 6.736 1.762 15.716 1.244 20.529-1.185 1.746-.88 5.9-3.6 8.017-5.246.857-.667 1.646-1.158 1.754-1.092.108.067 1.826 2.515 3.818 5.44l3.621 5.318-1.01.898c-2.968 2.64-9.04 6.195-13.454 7.875-2.913 1.109-6.765 2.16-9.252 2.525-2.092.306-8.975.566-10.583.4zm22.092-49.92c0-2.748-1.67-6.825-3.936-9.606-2.518-3.092-6.88-5.751-11.084-6.758-3.86-.924-10.262-.466-14.619 1.047-4.92 1.708-8.521 4.541-10.858 8.542-.911 1.56-2.894 6.776-2.894 7.613 0 .217 5.82.297 21.696.297h21.695zm-1119.38 47.702c0-.655.052-.923.115-.596.063.328.063.864 0 1.191-.063.327-.115.06-.115-.595zm206.11 0c0-.655.052-.923.115-.596.063.328.063.864 0 1.191-.063.327-.114.06-.114-.595zm54.168-38.1V106.81h15.346v6.085c0 3.347.09 6.085.199 6.084.109-.001.46-.388.782-.86 1.05-1.542 4.728-5.104 7.124-6.9 5.895-4.42 12.153-6.19 19.476-5.513 7.435.688 12.693 3.354 16.523 8.38 1.465 1.923 3.225 5.099 3.772 6.807l.316.987 1.362-2.045c.749-1.125 2.5-3.176 3.89-4.558 7.27-7.228 16.039-10.514 25.416-9.524 7.248.765 12.144 3.31 15.863 8.247 3.64 4.83 5.505 11.138 6.076 20.548.147 2.425.268 14.678.27 27.23l.002 22.82H-93.42l-.084-25.731c-.084-25.727-.084-25.731-.68-27.974-1.663-6.25-4.777-9.673-9.765-10.73-2.32-.491-7.623-.487-9.994.007-1.018.213-2.983.941-4.365 1.62-2.101 1.03-2.886 1.607-4.781 3.515-2.464 2.48-3.79 4.577-4.785 7.567l-.616 1.852-.079 24.937-.078 24.937h-15.326v-23.886c0-14.488-.105-24.724-.267-26.015-.399-3.182-.932-5.005-2.243-7.68-.929-1.892-1.541-2.744-2.836-3.943-2.692-2.492-5.133-3.3-9.979-3.3-5.982 0-10.868 2.032-14.721 6.12-2.64 2.802-4.14 6.12-4.607 10.193-.16 1.406-.269 11.563-.27 25.426l-.002 23.085h-15.346zm227.806 0V106.81h15.346v12.218l1.105-1.413c4.46-5.7 11.619-10.29 18.342-11.758 2.9-.633 9.688-.638 12.91-.01 5.08.993 8.328 2.58 11.439 5.593 3.93 3.806 5.997 8.187 7.399 15.675.792 4.231.928 9.1.928 33.18v24.302H85.685l-.001-24.54c-.002-26.093-.05-27.268-1.298-31.287-1.437-4.632-4.831-8.081-8.996-9.144-2.5-.638-9.4-.418-12.326.394-5.709 1.582-11.284 6.441-13.076 11.396-1.06 2.927-1.06 2.963-1.07 28.509l-.01 24.672H33.563zm88.107-15.875V75.06h15.344l.067 33.257.067 33.256 17.5-17.384 17.5-17.385 10.225.069 10.225.07-18.139 17.05c-9.976 9.379-18.106 17.138-18.067 17.242.062.168 5.39 6.374 30.7 35.756l6.553 7.606h-19.55l-14.33-16.685-14.329-16.685-1.498 1.393a589 589 0 0 0-4.21 3.982l-2.712 2.588v25.407h-15.346zm261.937 23.283v-31.485h-16.14V106.81h16.14V86.959l7.607.07 7.607.07.07 9.856.069 9.856h17.985v14.817h-17.992v62.97h-15.346zm-816.289 21.25c.191-.076.42-.066.507.021.088.088-.068.15-.347.14-.308-.013-.371-.076-.16-.16zm19.315 0c.19-.076.419-.066.507.021.088.088-.069.15-.348.14-.308-.013-.37-.076-.16-.16zm28.31 0c.191-.076.42-.066.507.021.088.088-.068.15-.347.14-.308-.013-.371-.076-.16-.16zm51.065 0c.19-.076.419-.066.507.021.088.088-.069.15-.348.14-.308-.013-.37-.076-.16-.16zm60.06 0c.191-.076.42-.066.507.021.088.088-.068.15-.347.14-.308-.013-.371-.076-.16-.16zm3.44 0c.19-.076.419-.066.507.021.088.088-.069.15-.348.14-.308-.013-.37-.076-.16-.16zm-162.19-16.139c.191-.076.42-.067.507.02.088.089-.068.151-.347.14-.308-.013-.371-.076-.16-.16zm3.44 0c.19-.076.419-.067.507.02.088.089-.069.151-.348.14-.308-.013-.37-.076-.16-.16zm60.06 0c.191-.076.42-.067.507.02.088.089-.068.151-.347.14-.308-.013-.371-.076-.16-.16zm3.44 0c.19-.076.419-.067.507.02.088.089-.069.151-.348.14-.308-.013-.37-.076-.16-.16zm29.104 0c.19-.076.419-.067.507.02.088.089-.068.151-.347.14-.309-.013-.371-.076-.16-.16zm65.352 0c.19-.076.42-.067.507.02.088.089-.068.151-.347.14-.308-.013-.371-.076-.16-.16zm-69.04-1.605c-.33-.42-.32-.43.1-.1.44.346.58.563.363.563-.055 0-.264-.209-.464-.463zm72.53.363c0-.055.207-.263.462-.463.42-.33.43-.32.1.1-.346.44-.563.58-.563.363zm-137.089-.892c-.329-.42-.32-.43.1-.1.255.2.463.408.463.463 0 .217-.217.077-.563-.363zm11.146.363c0-.055.209-.264.463-.463.42-.33.43-.32.1.1-.345.44-.563.58-.563.363zm50.292-4.553c.013-.308.076-.37.16-.16.076.192.067.42-.02.508-.089.088-.151-.069-.14-.348zm79.11 0c.013-.308.076-.37.16-.16.077.192.067.42-.02.508-.088.088-.15-.069-.14-.348zm-79.11-2.91c.013-.308.076-.371.16-.16.076.191.067.42-.02.507-.089.088-.151-.068-.14-.347zm79.11 0c.013-.308.076-.371.16-.16.077.191.067.42-.02.507-.088.088-.15-.068-.14-.347zm-72.301-6.376c.19-.077.419-.067.507.02.088.088-.068.15-.347.14-.309-.013-.371-.076-.16-.16zm65.352 0c.19-.077.42-.067.507.02.088.088-.068.15-.347.14-.308-.013-.371-.076-.16-.16zm-151.505-8.948c.005-.436.065-.583.132-.326.067.258.062.615-.01.794-.073.18-.128-.031-.122-.468zm15.61 0c.005-.436.065-.583.132-.326.067.258.063.615-.01.794-.072.18-.127-.031-.122-.468zm16.14 0c.005-.436.065-.583.132-.326.067.258.062.615-.01.794-.073.18-.128-.031-.122-.468zm15.61 0c.005-.436.065-.583.132-.326.067.258.063.615-.01.794-.072.18-.127-.031-.122-.468zm-63.245-1.72c0-.363.06-.512.133-.33.074.182.074.48 0 .661-.073.182-.133.033-.133-.33zm79.11 0c0-.363.06-.512.134-.33.073.182.073.48 0 .661-.074.182-.134.033-.134-.33zm-78.866-2.006c.012-.308.075-.371.16-.16.076.191.067.42-.021.507-.088.088-.15-.068-.14-.347zm78.581 0c.013-.308.075-.371.16-.16.076.191.067.42-.021.507-.088.088-.15-.068-.14-.347zm-49.647-.97-.777-.86.86.777c.801.724.981.943.777.943-.046 0-.433-.387-.86-.86zm31.75 0-.777-.86.86.777c.801.724.981.943.777.943-.046 0-.433-.387-.86-.86zm-42.449-.299c0-.054.208-.263.463-.463.42-.329.43-.32.1.1-.346.441-.563.581-.563.363zm31.75 0c0-.054.208-.263.463-.463.42-.329.43-.32.1.1-.346.441-.563.581-.563.363zm-49.456-.848c.013-.308.075-.37.16-.16.076.191.067.42-.021.508-.088.087-.15-.069-.14-.348zm21.746-1.087c.257-.067.615-.063.794.01.179.072-.032.127-.468.122-.437-.005-.583-.065-.326-.132zm1.852 0c.258-.067.615-.063.794.01.179.072-.032.127-.468.122-.437-.005-.583-.065-.326-.132zm29.898 0c.257-.067.615-.063.794.01.179.072-.032.127-.468.122-.437-.005-.583-.065-.326-.132zm1.852 0c.258-.067.615-.063.794.01.179.072-.032.127-.468.122-.437-.005-.583-.065-.326-.132zm41.154-.262c.191-.076.42-.067.507.02.088.089-.068.151-.347.14-.308-.013-.37-.076-.16-.16zm7.409 0c.19-.076.419-.067.507.02.088.089-.069.151-.348.14-.308-.013-.37-.076-.16-.16zm28.31 0c.191-.076.42-.067.507.02.088.089-.068.151-.347.14-.308-.013-.371-.076-.16-.16zm35.19 0c.19-.076.419-.067.507.02.088.089-.069.151-.348.14-.308-.013-.37-.076-.16-.16zm-164.522-4.946c0-.055.209-.264.463-.463.42-.33.43-.32.1.1-.345.44-.563.58-.563.363zm71.404-.363c-.329-.42-.32-.43.1-.1.255.2.463.408.463.463 0 .217-.217.077-.563-.363zm-69.684-1.919c.264-.29.539-.529.611-.529.073 0-.083.238-.346.53-.264.29-.539.529-.611.529-.073 0 .083-.239.346-.53zm68.11-.198-.641-.728.728.642c.4.353.727.68.727.727 0 .208-.214.039-.814-.641zm-89.337-1.918c0-.655.052-.923.115-.596.063.328.063.864 0 1.191-.063.327-.115.06-.115-.595zm206.11 0c0-.655.052-.923.115-.596.063.328.063.864 0 1.191-.063.327-.114.06-.114-.595zm-182.105-.662c.342-.364.681-.661.754-.661.073 0-.147.297-.49.661-.34.364-.68.662-.753.662-.073 0 .148-.298.49-.662zm30.8-.198-.505-.596.595.505c.586.495.606.495 1.191 0l.595-.505-.504.596c-.277.327-.586.595-.686.595-.1 0-.41-.268-.687-.595zm31.75 0-.505-.596.595.505c.56.473.716.686.504.686-.05 0-.318-.268-.595-.595zm-102.43-.728c0-.655.052-.923.115-.595.063.327.063.863 0 1.19-.063.328-.115.06-.115-.595zm237.86 0c0-.655.052-.923.115-.595.063.327.063.863 0 1.19-.063.328-.114.06-.114-.595zm-196.921.165c0-.055.208-.263.463-.463.42-.33.429-.32.1.1-.346.44-.563.58-.563.363zm28.54-.363c-.328-.42-.319-.43.1-.1.442.346.582.563.364.563-.055 0-.263-.209-.463-.463zm3.21.363c0-.055.208-.263.463-.463.42-.33.429-.32.1.1-.346.44-.563.58-.563.363zm28.54-.363c-.328-.42-.319-.43.1-.1.442.346.582.563.364.563-.055 0-.263-.209-.463-.463zm-85.14-.75c.012-.308.075-.37.16-.16.076.191.067.42-.021.507-.088.088-.15-.068-.14-.347zm205.581 0c.013-.308.075-.37.16-.16.076.191.067.42-.021.507-.088.088-.15-.068-.14-.347zm-221.456-1.587c.012-.309.075-.371.16-.16.076.19.067.419-.021.507-.088.088-.15-.069-.14-.347zm237.331 0c.013-.309.075-.371.16-.16.076.19.067.419-.021.507-.088.088-.15-.069-.14-.347zm-237.046-1.698c0-.364.06-.513.134-.33.073.181.073.479 0 .66-.074.183-.134.034-.134-.33zm61.557.348c.19-.076.419-.067.507.021.088.088-.069.15-.347.14-.309-.014-.371-.076-.16-.16zm31.75 0c.19-.076.419-.067.507.021.088.088-.069.15-.347.14-.309-.014-.371-.076-.16-.16zm143.495-.348c0-.364.06-.513.134-.33.073.181.073.479 0 .66-.074.183-.134.034-.134-.33zm-186.622-.18c.19-.077.419-.068.507.02.088.088-.069.15-.348.139-.308-.013-.37-.075-.16-.16zm9.26 0c.191-.077.42-.068.507.02.088.088-.068.15-.347.139-.308-.013-.371-.075-.16-.16zm22.49 0c.19-.077.419-.068.507.02.088.088-.069.15-.348.139-.308-.013-.37-.075-.16-.16zm9.26 0c.191-.077.42-.068.507.02.088.088-.068.15-.347.139-.308-.013-.371-.075-.16-.16zm-39.175-.26c.182-.073.48-.073.662 0 .182.073.033.134-.331.134s-.513-.06-.33-.134zm5.292 0c.182-.073.48-.073.661 0 .182.073.033.134-.33.134-.364 0-.513-.06-.331-.134zm26.458 0c.182-.073.48-.073.662 0 .182.073.033.134-.331.134s-.513-.06-.33-.134zm5.292 0c.182-.073.48-.073.661 0 .182.073.033.134-.33.134-.364 0-.513-.06-.331-.134zm39.44-.006c.19-.076.419-.067.506.021.088.088-.068.15-.347.139-.308-.013-.37-.075-.16-.16zm7.408 0c.19-.076.419-.067.507.021.088.088-.069.15-.348.139-.308-.013-.37-.075-.16-.16zm28.31 0c.191-.076.42-.067.507.021.088.088-.068.15-.347.139-.308-.013-.371-.075-.16-.16zm35.19 0c.19-.076.419-.067.507.021.088.088-.069.15-.348.139-.308-.013-.37-.075-.16-.16zm-181.72-2.635c0-.142.186-.49.412-.772.388-.484.393-.475.096.148-.385.81-.507.96-.507.624zm201.122-.558c-.289-.674-.282-.69.09-.214.22.283.401.61.401.728 0 .402-.18.214-.491-.514zm-198.74-3.34c0-.056.208-.264.463-.464.42-.329.429-.32.1.1-.346.44-.563.581-.563.363zm196.287-.364c-.33-.42-.32-.429.1-.1.254.2.463.408.463.463 0 .218-.218.078-.563-.363zm-1.045-1.323-.641-.727.727.641c.4.353.728.68.728.728 0 .207-.214.038-.814-.642zm-193.787-.066c.263-.29.538-.529.611-.529.073 0-.083.238-.346.53-.264.29-.539.528-.612.528-.072 0 .084-.238.347-.529zm1.455-1.455c.342-.364.681-.661.754-.661.073 0-.147.297-.49.661-.341.364-.68.661-.753.661-.073 0 .147-.297.49-.661zm190.872.066-.504-.595.595.504c.328.277.595.545.595.595 0 .212-.212.055-.686-.504zm-209.922-1.241c0-.137.118-.322.262-.41.15-.093.194.013.104.248-.176.459-.366.542-.366.162zm228.75-.203c-.144-.377-.114-.407.148-.148.18.18.262.393.18.475-.081.081-.23-.066-.329-.327zm-204.82-2.047c.282-.226.63-.412.771-.412.336 0 .186.123-.624.508-.623.297-.632.292-.148-.096zm180.858-.015c-.364-.208-.536-.382-.382-.387.154-.005.512.165.794.379.653.494.445.498-.412.008zm-202.407-1.555c0-.055.209-.263.463-.463.42-.329.43-.32.1.1-.345.44-.563.581-.563.363zm223.804-.363c-.329-.42-.32-.429.1-.1.44.346.581.563.363.563-.055 0-.263-.208-.463-.463zm-195.278-.511c.19-.077.419-.067.507.02.088.088-.068.151-.347.14-.309-.013-.371-.076-.16-.16zm166.952 0c.19-.077.42-.067.507.02.088.088-.068.151-.347.14-.308-.013-.371-.076-.16-.16zm-164.852-.27a3.77 3.77 0 0 1 1.19 0c.328.062.06.114-.595.114s-.922-.052-.595-.115zm161.925 0a3.77 3.77 0 0 1 1.19 0c.328.062.06.114-.595.114s-.922-.052-.595-.115zm-189.905-2.268c0-.04.923-.963 2.05-2.05l2.051-1.979-1.977 2.051c-1.837 1.904-2.124 2.171-2.124 1.978zm216.694-2.176c-1.084-1.091-1.912-1.984-1.839-1.984.073 0 1.02.893 2.104 1.984s1.911 1.984 1.838 1.984c-.072 0-1.019-.893-2.103-1.984zm-211.667-2.613c0-.055.209-.264.463-.463.42-.33.43-.32.1.1-.345.44-.563.58-.563.363zm208.458-.363c-.329-.42-.32-.43.1-.1.255.2.463.408.463.463 0 .217-.217.077-.563-.363zm-207.4-.431c0-.055.209-.263.464-.463.42-.33.429-.32.1.1-.346.44-.563.58-.563.363zm206.342-.363c-.33-.42-.32-.43.1-.1.254.2.463.408.463.463 0 .218-.217.077-.563-.363zm-205.283-.43c0-.056.208-.264.463-.464.42-.329.429-.32.1.1-.346.44-.563.58-.563.363zm204.225-.364c-.33-.42-.32-.429.1-.1.44.346.58.563.363.563-.055 0-.264-.208-.463-.463zm-200.327-2.216c.18-.18.393-.262.475-.18.081.081-.066.23-.327.328-.377.144-.407.114-.148-.148zm196.656.033c-.238-.154-.27-.258-.082-.26a.615.615 0 0 1 .479.26c.203.329.111.329-.397 0zm-185.274-4.144c.182-.073.48-.073.661 0 .182.074.033.134-.33.134-.364 0-.513-.06-.331-.134zm173.566 0c.182-.073.48-.073.662 0 .182.074.033.134-.33.134-.365 0-.514-.06-.332-.134zm-171.698-.27c.191-.076.42-.067.507.021.088.088-.068.15-.347.139-.308-.013-.37-.075-.16-.16zm170.127 0c.191-.076.42-.067.508.021.087.088-.069.15-.348.139-.308-.013-.37-.075-.16-.16zm-168.027-.27a3.77 3.77 0 0 1 1.191 0c.327.063.06.114-.595.114s-.923-.051-.596-.114zm165.1 0a3.77 3.77 0 0 1 1.191 0c.327.063.06.114-.595.114s-.923-.051-.596-.114z" transform="matrix(1.45873 0 0 1.45873 686.18 -109.493)"/>
	      <path class="main" d="M-433.956 221.726c-4.624-.35-10.897-2.135-14.788-4.204-4.102-2.182-6.663-4.078-9.966-7.379-4.769-4.764-7.65-9.39-9.66-15.51-2.086-6.356-1.966-3.667-1.966-44.166 0-40.319-.115-37.635 1.883-43.947 1.766-5.575 4.904-10.806 9.093-15.155 4.848-5.032 9.727-8.122 16.16-10.235 6.57-2.157-2.247-1.968 91.794-1.968 94.04 0 85.224-.189 91.793 1.968 6.433 2.113 11.312 5.203 16.16 10.235 4.19 4.349 7.328 9.58 9.093 15.155 1.999 6.312 1.884 3.628 1.884 43.947 0 40.5.12 37.81-1.967 44.165-2.01 6.122-4.89 10.747-9.66 15.511-4.697 4.693-9.478 7.68-15.41 9.628-6.666 2.19 2.317 1.99-90.57 2.02-45.476.014-83.218-.015-83.873-.065zm165.629-15.972c9.069-1.43 16.362-7.914 19.247-17.11l.729-2.326V114.881l-.6-2.068c-.918-3.171-1.828-5.124-3.568-7.666-3.265-4.768-7.897-7.96-13.999-9.646-1.581-.438-6.426-.464-85.02-.464h-83.344l-2.307.724c-8.688 2.727-14.372 8.625-16.809 17.443-.431 1.56-.463 4.178-.463 37.395v35.72l.73 2.327c2.87 9.15 10.071 15.582 19.156 17.107 1.96.329 164.163.33 166.248.002zm-165.046-16.094c-2.683-.94-4.54-3.082-5.137-5.929-.822-3.918 1.607-7.94 5.476-9.065 1.19-.345 2.92-.399 10.765-.333l9.347.079 1.503.738c2.834 1.392 4.303 3.8 4.312 7.067.005 1.643-.121 2.243-.732 3.488-.837 1.703-2.118 2.946-3.879 3.76-1.144.53-1.675.56-10.729.621-8.692.059-9.647.021-10.926-.426zm47.625-.004c-2.68-.93-4.54-3.077-5.137-5.925-.6-2.858.58-5.999 2.923-7.787 2.282-1.74 1.247-1.683 29.167-1.604l25.248.072 1.503.738c2.839 1.394 4.307 3.803 4.307 7.067 0 3.264-1.468 5.673-4.307 7.067l-1.503.738-25.4.06c-24.064.057-25.474.035-26.8-.426zm79.448.038c-1.721-.616-2.898-1.468-3.857-2.793-1.518-2.095-1.562-2.543-1.562-16.097v-12.376l-12.634-.078c-12.493-.077-12.648-.085-13.935-.678-1.901-.877-3.37-2.19-4.254-3.801-.666-1.215-.779-1.706-.779-3.404 0-1.694.113-2.19.772-3.392.938-1.71 2.15-2.813 4.095-3.725l1.468-.688h66.41l1.467.688c1.945.912 3.158 2.015 4.095 3.725.66 1.202.772 1.698.772 3.392 0 1.698-.112 2.19-.778 3.404-.884 1.611-2.353 2.924-4.254 3.8-1.287.594-1.443.602-13.926.68l-12.625.077-.075 12.887c-.074 12.46-.094 12.926-.633 14.09-1.72 3.718-6.05 5.62-9.767 4.289zm31.71-.013c-6.637-2.373-7.217-11.443-.929-14.531 2.141-1.052 4.834-1.052 6.975 0 2.839 1.394 4.307 3.803 4.307 7.067 0 2.254-.55 3.762-1.953 5.36-1.897 2.161-5.626 3.095-8.4 2.104zm-158.75-31.75c-2.67-.954-4.532-3.03-5.128-5.712-.207-.934-.266-4.482-.189-11.41.104-9.4.15-10.191.702-12.17 2.325-8.336 8.863-14.874 17.096-17.096 3.12-.842 8.655-.845 11.774-.008 2.965.797 6.065 2.278 8.268 3.952l1.786 1.356 1.786-1.356c2.152-1.635 5.397-3.203 8.193-3.959 3.059-.826 8.626-.823 11.717.007 8.667 2.329 15.157 8.925 17.392 17.678.401 1.571.462 3.205.464 12.523.003 10.34-.017 10.757-.554 11.92-.815 1.76-2.058 3.041-3.76 3.878-1.24.608-1.852.738-3.488.738-3.308 0-5.866-1.63-7.248-4.617-.527-1.139-.565-1.746-.69-11.258-.129-9.8-.147-10.082-.729-11.171-.89-1.665-1.98-2.79-3.552-3.66-1.25-.693-1.657-.779-3.656-.776-1.928.003-2.444.106-3.614.72-1.38.724-2.788 2.212-3.695 3.907-.453.846-.508 1.81-.629 11.112l-.132 10.187-.715 1.355c-3.04 5.762-11.141 5.762-14.18 0l-.715-1.355-.133-10.187c-.129-9.937-.147-10.213-.729-11.303-.89-1.665-1.98-2.79-3.552-3.66-1.25-.693-1.657-.779-3.656-.776-1.928.003-2.444.106-3.614.72-1.38.724-2.788 2.212-3.695 3.907-.453.845-.508 1.807-.629 10.98-.125 9.512-.162 10.12-.69 11.258-1.728 3.737-6.046 5.62-9.805 4.276zm91.248-31.765c-2.69-.954-4.54-3.092-5.137-5.935-.6-2.858.58-5.999 2.924-7.787 1.776-1.355 3.497-1.732 7.41-1.624 3.026.083 3.493.163 4.851.83 2.834 1.392 4.303 3.8 4.312 7.067.005 1.643-.121 2.243-.732 3.488-.838 1.706-2.124 2.95-3.879 3.754-1.753.802-7.711.929-9.749.207zm35.72-.01c-2.681-.932-4.541-3.077-5.138-5.925-.6-2.858.58-6 2.923-7.787 2.229-1.7 2.071-1.688 21.237-1.606 16.955.072 17.327.085 18.507.63 1.76.815 3.042 2.058 3.879 3.761.608 1.24.738 1.852.738 3.488 0 3.307-1.63 5.866-4.617 7.248-1.181.546-1.535.558-18.666.618-16.377.058-17.55.031-18.864-.426z" transform="matrix(1.45873 0 0 1.45873 686.18 -109.493)"/>
      </g>
    </g>
  </g>
</svg>
